<svg xmlns="http://www.w3.org/2000/svg" width="411.423" height="377.969" viewBox="0 0 411.423 377.969">
  <g id="Emails-amico" transform="translate(-26.6 -67.411)">
    <g id="freepik--Floor--inject-6" transform="translate(26.6 203.212)">
      <ellipse id="freepik--floor--inject-6-2" data-name="freepik--floor--inject-6" cx="205.711" cy="121.084" rx="205.711" ry="121.084" fill="#f5f5f5"/>
    </g>
    <g id="freepik--Shadows--inject-6" transform="translate(49.48 228.896)">
      <path id="freepik--Shadow--inject-6" d="M46.405,345.478c-11.9,6.884-11.9,18.049,0,24.914s31.207,6.884,43.113,0,11.906-18.058,0-24.914S58.376,338.585,46.405,345.478Z" transform="translate(280.074 -249.977)" fill="#e0e0e0"/>
      <path id="freepik--shadow--inject-6-2" data-name="freepik--shadow--inject-6" d="M420.923,353.741l-107.975,62.47a8.8,8.8,0,0,1-7.974,0L122.191,310.463c-2.2-1.273-2.2-3.34,0-4.614l107.975-62.48a8.8,8.8,0,0,1,7.974,0L420.923,349.127C423.133,350.4,423.133,352.467,420.923,353.741Z" transform="translate(-120.54 -242.414)" fill="#e0e0e0"/>
    </g>
    <g id="freepik--Plants--inject-6" transform="translate(43.574 203.673)">
      <g id="freepik--plants--inject-6-2" data-name="freepik--plants--inject-6" transform="translate(0)">
        <path id="Path_21723" data-name="Path 21723" d="M425.153,285.948l7.523-4.355s4.484-18.649,2.7-35.425c-2.514-23.586-15.175-33.856-23.9-30.451-5.8,2.288-7.6,8.9,2.155,22.949C419.38,246.98,426.442,264.235,425.153,285.948Z" transform="translate(-391.372 -215.08)" fill="#407bff"/>
        <g id="Group_42436" data-name="Group 42436" transform="translate(15.352)" opacity="0.3">
          <path id="Path_21724" data-name="Path 21724" d="M425.153,285.948l7.523-4.355s4.484-18.649,2.7-35.425c-2.514-23.586-15.175-33.856-23.9-30.451-5.8,2.288-7.6,8.9,2.155,22.949C419.38,246.98,426.442,264.235,425.153,285.948Z" transform="translate(-406.723 -215.08)"/>
        </g>
        <path id="Path_21725" data-name="Path 21725" d="M426.649,277.157h-.1a.517.517,0,0,1-.414-.609c4.125-21.749-3.462-46.2-12.891-56.371a.525.525,0,0,1,.774-.711c9.558,10.363,17.293,35.2,13.1,57.275a.507.507,0,0,1-.47.415Z" transform="translate(-389.746 -215.407)" fill="#fff"/>
        <path id="Path_21726" data-name="Path 21726" d="M425.363,298.979c-1.188.6-4.346-2.113-5.23-2.768a11.069,11.069,0,0,1-3.453-4.4,10.42,10.42,0,0,1-.6-6.266,24.425,24.425,0,0,1,.921-3.267l1.077-3.156a8.154,8.154,0,0,0,.635-3.211c-.166-2.215-2.035-3.848-3.739-5.26-1.842-1.569-3.812-3.608-3.683-6.247a9.319,9.319,0,0,1,2.606-5.417c1.335-1.532,2.91-2.87,4.134-4.5a6.513,6.513,0,0,0,1.529-4.042,6.775,6.775,0,0,0-.764-2.611,36.542,36.542,0,0,1-2.542-5.278c-.553-1.846-.341-4.18,1.16-5.426a6.168,6.168,0,0,1,4.6-.923,10.448,10.448,0,0,1,4.144,1.7c4.07,2.547,6.206,7.64,10.562,9.652a45.045,45.045,0,0,0,5.3,1.6,6.629,6.629,0,0,1,4.282,3.257c1.473,3.35-1.759,7.216-.783,10.741.856,3.119,3.766,4.438,5.295,7.29a6.471,6.471,0,0,1,.58,4.051,19.213,19.213,0,0,1-2.026,6.69,58.794,58.794,0,0,1-4.024,6.192S425.547,298.887,425.363,298.979Z" transform="translate(-411.287 -216.707)" fill="#407bff"/>
        <g id="Group_42437" data-name="Group 42437" transform="translate(0 19.428)" opacity="0.15">
          <path id="Path_21727" data-name="Path 21727" d="M425.363,298.979c-1.188.6-4.346-2.113-5.23-2.768a11.069,11.069,0,0,1-3.453-4.4,10.42,10.42,0,0,1-.6-6.266,24.425,24.425,0,0,1,.921-3.267l1.077-3.156a8.154,8.154,0,0,0,.635-3.211c-.166-2.215-2.035-3.848-3.739-5.26-1.842-1.569-3.812-3.608-3.683-6.247a9.319,9.319,0,0,1,2.606-5.417c1.335-1.532,2.91-2.87,4.134-4.5a6.513,6.513,0,0,0,1.529-4.042,6.775,6.775,0,0,0-.764-2.611,36.542,36.542,0,0,1-2.542-5.278c-.553-1.846-.341-4.18,1.16-5.426a6.168,6.168,0,0,1,4.6-.923,10.448,10.448,0,0,1,4.144,1.7c4.07,2.547,6.206,7.64,10.562,9.652a45.045,45.045,0,0,0,5.3,1.6,6.629,6.629,0,0,1,4.282,3.257c1.473,3.35-1.759,7.216-.783,10.741.856,3.119,3.766,4.438,5.295,7.29a6.471,6.471,0,0,1,.58,4.051,19.213,19.213,0,0,1-2.026,6.69,58.794,58.794,0,0,1-4.024,6.192S425.547,298.887,425.363,298.979Z" transform="translate(-411.287 -236.134)"/>
        </g>
        <path id="Path_21728" data-name="Path 21728" d="M440.389,293.317h0a.526.526,0,0,1-.479-.572c1.906-20.688-6.694-44.071-13.444-51.084a.525.525,0,1,1,.746-.729c6.9,7.151,15.654,30.931,13.739,51.9a.525.525,0,0,1-.562.48Z" transform="translate(-414.793 -217.061)" fill="#fff"/>
        <path id="Path_21729" data-name="Path 21729" d="M444.338,269.716h-.157a69.046,69.046,0,0,0-14.89-3.184.526.526,0,0,1-.47-.572.5.5,0,0,1,.562-.471,71.336,71.336,0,0,1,15.157,3.239.526.526,0,0,1-.2,1.015Z" transform="translate(-420.795 -218.974)" fill="#fff"/>
      </g>
    </g>
    <g id="freepik--Device--inject-6" transform="translate(54.175 67.411)">
      <g id="freepik--Laptop--inject-6" transform="translate(0)">
        <path id="Path_21730" data-name="Path 21730" d="M418.345,341.437a9.793,9.793,0,0,1-4.558,7.576L314.606,406.38a10.11,10.11,0,0,1-9.107,0L130.9,305.366a8.572,8.572,0,0,1,0-15.152l99.163-57.386a10.027,10.027,0,0,1,9.107,0L413.787,333.852a9.812,9.812,0,0,1,4.558,7.585Z" transform="translate(-126.34 -80.105)" fill="#37474f"/>
        <path id="Path_21731" data-name="Path 21731" d="M414.02,339.121l-99.182,57.386a10.027,10.027,0,0,1-9.107,0l-174.6-101.023c-2.523-1.458-2.523-3.82,0-5.269L230.3,232.828a10.027,10.027,0,0,1,9.107,0L414.02,333.852C416.534,335.328,416.534,337.672,414.02,339.121Z" transform="translate(-126.573 -80.105)" fill="#455a64"/>
        <path id="Path_21732" data-name="Path 21732" d="M126.339,406.178v9.883a9.275,9.275,0,0,0,4.6-1.089l99.117-57.386a8.553,8.553,0,0,0,.46-14.866c2.044,1.467,1.842,3.617-.46,4.983l-99.182,57.386a9.376,9.376,0,0,1-4.54,1.089Z" transform="translate(57.387 -88.678)" fill="#263238"/>
        <path id="Path_21733" data-name="Path 21733" d="M307.284,321.325c2.357-1.366,2.228-3.691,2.228-6.579V177.486a10.154,10.154,0,0,0-4.6-7.908L130.339,68.555a9.752,9.752,0,0,0-8.821-.166c-2.367,1.366-2.238,3.691-2.238,6.588v137.25a10.1,10.1,0,0,0,4.558,7.908L298.453,321.159a9.743,9.743,0,0,0,8.831.166Z" transform="translate(-11.006 -67.412)" fill="#37474f"/>
        <path id="Path_21734" data-name="Path 21734" d="M120.741,74.967c0-2.907,2.044-4.079,4.558-2.63L299.914,173.37a9.22,9.22,0,0,1,3.223,3.4l6.492-3.783h0a9.293,9.293,0,0,0-3.223-3.414L131.809,68.554a9.742,9.742,0,0,0-8.831-.166C120.621,69.8,120.741,72.061,120.741,74.967Z" transform="translate(-12.467 -67.411)" fill="#455a64"/>
        <path id="Path_21735" data-name="Path 21735" d="M119.279,330.273a9.77,9.77,0,0,0,8.287-.111c2.357-1.366,2.238-3.691,2.238-6.579V186.324a9.242,9.242,0,0,0-1.335-4.494l-6.5,3.774h0A9.371,9.371,0,0,1,123.3,190.1V327.367C123.3,330.061,121.544,331.279,119.279,330.273Z" transform="translate(168.702 -76.25)" fill="#263238"/>
        <path id="Path_21736" data-name="Path 21736" d="M302.07,179.755,133.762,82.377c-1.51-.923-2.762-.166-2.762,1.578V203.8a6.046,6.046,0,0,0,2.762,4.743L302.07,305.9c1.51.867,2.762.166,2.762-1.587V184.5A6.065,6.065,0,0,0,302.07,179.755Z" transform="translate(-17.118 -68.537)" fill="#fafafa"/>
        <path id="Path_21737" data-name="Path 21737" d="M314.211,334.8l-162.064-93.78a5,5,0,0,0-4.549,0l-2.7,1.486a1.393,1.393,0,0,0,0,2.639L306.964,338.9a5.028,5.028,0,0,0,4.6,0l2.67-1.467C315.491,336.7,315.491,335.523,314.211,334.8Z" transform="translate(-39.388 -80.78)" fill="#263238"/>
        <path id="Path_21738" data-name="Path 21738" d="M366.713,343l-162.064-93.77a4.641,4.641,0,0,0-4.162-.231L158.3,273.414c-1.041.6-.866,1.679.387,2.408l161.871,93.641a4.7,4.7,0,0,0,4.171.24l42.358-24.3C368.14,344.807,367.965,343.728,366.713,343Z" transform="translate(-104.579 -81.408)" fill="#263238"/>
        <path id="Path_21739" data-name="Path 21739" d="M226.8,288.945l-5.083-2.934c-.212-.12-.23-.314,0-.424l4.853-2.768a.827.827,0,0,1,.737,0l5.074,2.944c.221.12.239.314,0,.424l-4.853,2.768A.8.8,0,0,1,226.8,288.945Zm7.367-10.15,5.074,2.934c.221.12.239.314.046.424l-4.853,2.768a.827.827,0,0,1-.737,0l-5.074-2.944c-.221-.12-.239-.314-.046-.424l4.853-2.768a.8.8,0,0,1,.773.009Zm16.4,9.486,8.582,4.964c.221.12.239.314.046.424l-4.853,2.814a.827.827,0,0,1-.737,0l-8.591-4.974c-.212-.12-.23-.314,0-.424l4.862-2.768a.8.8,0,0,1,.727-.074Zm-8.978-5.2,5.074,2.934c.212.12.23.314.046.424l-4.862,2.768a.827.827,0,0,1-.737,0l-5.074-2.944c-.212-.12-.23-.314,0-.424l4.862-2.768a.8.8,0,0,1,.727-.028ZM261.494,294.6l5.074,2.934c.212.129.23.314.046.424l-4.862,2.768a.836.836,0,0,1-.737,0l-5.074-2.934c-.212-.129-.23-.314-.046-.434l4.862-2.768a.8.8,0,0,1,.774-.028Zm7.413,4.291,5.129,2.9c.221.129.239.314,0,.424l-4.853,2.814a.827.827,0,0,1-.737,0l-5.074-2.934c-.221-.129-.239-.314-.046-.434l4.853-2.768a.8.8,0,0,1,.764-.037Zm-19.024,11.461-5.083-2.934c-.212-.129-.23-.314,0-.424l4.853-2.768a.8.8,0,0,1,.737,0l5.074,2.934c.221.129.239.314.046.424l-4.853,2.814a.827.827,0,0,1-.737-.083Zm7.413,4.291-5.074-2.934c-.212-.129-.239-.314-.046-.424l4.853-2.814a.818.818,0,0,1,.746,0l5.074,2.934c.212.129.23.314,0,.424l-4.853,2.768a.827.827,0,0,1-.663.009Zm7.422,4.291L259.634,316c-.212-.129-.23-.314,0-.424l4.853-2.814a.8.8,0,0,1,.737,0l5.074,2.944c.221.129.239.314.046.424l-4.853,2.814a.8.8,0,0,1-.737-.046Zm7.477,4.254-5.074-2.934c-.221-.129-.239-.314,0-.424l4.853-2.814a.8.8,0,0,1,.737,0l5.009,2.962c.212.129.23.314,0,.424l-4.853,2.814A.8.8,0,0,1,272.194,323.189ZM234.238,293.2l-5.074-2.934c-.212-.12-.239-.314-.046-.424l4.853-2.768a.827.827,0,0,1,.737,0l5.083,2.944c.212.12.23.314,0,.424l-4.853,2.768a.8.8,0,0,1-.727-.009Zm8.287,12.826-11.317-6.552c-.221-.12-.239-.314,0-.424l11.786-6.819a.846.846,0,0,1,.746,0l5.847,3.387c.221.129.239.323.046.434l-6.243,3.608c-.193.111-.166.3.046.424l4.613,2.7c.212.129.23.314,0,.424l-4.853,2.814a.827.827,0,0,1-.7,0Zm33.868-2.879,5.009,2.934c.212.129.23.314,0,.424l-4.853,2.814a.827.827,0,0,1-.737,0l-5.074-2.934c-.212-.129-.23-.314-.046-.424l4.862-2.814a.8.8,0,0,1,.81,0Zm7.385,4.254,5.074,2.934c.221.129.239.314,0,.424L284,313.574a.8.8,0,0,1-.737,0l-5.074-2.934c-.221-.129-.239-.314-.046-.424l4.9-2.814a.8.8,0,0,1,.737,0Zm41.041,45.815a.8.8,0,0,1-.737,0l-5.074-2.934c-.212-.12-.23-.314-.046-.424l4.862-2.768a.8.8,0,0,1,.737,0l5.074,2.934c.212.129.23.323.046.434ZM343.1,341.764l5.074,2.934c.212.129.239.323.046.434l-4.862,2.768a.8.8,0,0,1-.737,0l-5.074-2.934c-.212-.12-.23-.314,0-.424l4.853-2.768a.8.8,0,0,1,.7-.009Zm-9.4,8.609a.855.855,0,0,1-.746,0l-5.074-2.934c-.212-.129-.23-.323,0-.434l4.853-2.768a.8.8,0,0,1,.737,0l5.028,2.9c.212.12.239.314.046.424Zm-20.47,4.614-5.074-2.934c-.212-.12-.23-.314,0-.424l4.862-2.768a.827.827,0,0,1,.737,0l5.074,2.944c.212.12.23.314,0,.424L313.971,355a.8.8,0,0,1-.727-.018Zm8.158,4.318a.8.8,0,0,1-.737,0l-5.074-2.934c-.221-.12-.239-.314,0-.424l4.853-2.768a.827.827,0,0,1,.737,0l5.074,2.944c.221.12.239.314.046.424Zm14.346-21.832,5.083,2.934c.212.129.23.323,0,.434l-4.853,2.768a.8.8,0,0,1-.737,0l-5.074-2.934c-.221-.12-.239-.314-.046-.424l4.853-2.814a.827.827,0,0,1,.773.037Zm-37.081-21.454,5.074,2.934c.221.129.239.314.046.424l-4.853,2.768a.8.8,0,0,1-.737,0l-5.083-2.934c-.212-.129-.23-.314,0-.424l4.853-2.814a.8.8,0,0,1,.663.046Zm29.669,17.163,5.074,2.934c.212.129.239.323.046.434l-4.853,2.768a.818.818,0,0,1-.746,0l-5.074-2.934c-.212-.129-.23-.314,0-.424l4.853-2.768a.827.827,0,0,1,.663-.009Zm-37.081-21.454,5.074,2.934c.212.129.23.314,0,.424l-4.853,2.814a.8.8,0,0,1-.737,0l-5.074-2.934c-.212-.129-.23-.314-.046-.424l4.862-2.768a.8.8,0,0,1,.737-.046Zm14.8,8.591,5.074,2.934c.212.129.23.314,0,.424l-4.853,2.814a.8.8,0,0,1-.737,0l-5.074-2.934c-.212-.129-.239-.314-.046-.424l4.89-2.814A.818.818,0,0,1,306.034,320.319Zm7.413,4.291,5.074,2.934c.221.129.239.314.046.424l-4.853,2.814a.8.8,0,0,1-.737,0l-5.083-2.934c-.212-.129-.23-.314,0-.424l4.816-2.851a.827.827,0,0,1,.737.028Zm7.367,4.291,5.083,2.934c.212.129.23.323,0,.434l-4.853,2.768a.8.8,0,0,1-.737,0l-5.074-2.934c-.221-.129-.239-.314-.046-.424l4.89-2.814a.827.827,0,0,1,.783.028Zm-33.859,2.879-5.074-2.934c-.221-.129-.239-.314,0-.424l4.853-2.768a.827.827,0,0,1,.737,0l5.083,2.934c.212.129.23.314,0,.424l-4.853,2.814a.8.8,0,0,1-.7-.055Zm-69.19-62.5,5.074,2.934c.212.12.23.314.046.424l-4.862,2.768a.827.827,0,0,1-.737,0l-5.074-2.944c-.212-.12-.23-.314-.046-.424l4.862-2.768a.8.8,0,0,1,.783,0Zm8.978,5.186,5.074,2.944c.212.12.23.314.046.424L227,280.6a.827.827,0,0,1-.737,0l-5.074-2.944c-.212-.12-.23-.314-.046-.424l4.862-2.768a.827.827,0,0,1,.783-.009Zm-16.354-9.514,5.074,2.934c.221.12.239.314.046.424l-4.853,2.768a.827.827,0,0,1-.737,0l-5.074-2.944c-.221-.12-.239-.314-.046-.424l4.853-2.768A.8.8,0,0,1,210.388,264.954Zm40.995,38.184-5.074-2.934c-.212-.12-.23-.314-.046-.424l4.862-2.768a.827.827,0,0,1,.737,0l5.074,2.944c.212.12.23.314.046.424l-4.862,2.768a.8.8,0,0,1-.737-.009Zm-49.144-42.447a.827.827,0,0,1,.737,0l5.074,2.944c.212.12.23.314.046.424l-4.862,2.768a.827.827,0,0,1-.737,0l-5.074-2.944c-.212-.12-.23-.314-.046-.424Zm77.349,66.817-5.074-2.934c-.212-.129-.23-.314,0-.424l4.853-2.814a.8.8,0,0,1,.737,0l4.982,2.934c.212.129.239.314,0,.424l-4.853,2.814a.818.818,0,0,1-.672-.028Zm-90.949-52.6-5.074-2.934c-.221-.12-.239-.314-.046-.424l4.88-2.907a.827.827,0,0,1,.737,0l5.074,2.934c.221.129.239.323.046.434l-4.853,2.768a.8.8,0,0,1-.773.074Zm14.356.277-5.083-2.934c-.212-.12-.23-.314,0-.424l4.853-2.768a.827.827,0,0,1,.737,0L208.574,272c.221.12.239.314.046.424l-4.853,2.768a.8.8,0,0,1-.783-.092Zm-7.68-10.455a.827.827,0,0,1,.737,0l5.074,2.944c.212.12.23.314,0,.424l-4.853,2.768a.8.8,0,0,1-.737,0l-5.074-2.934c-.212-.12-.239-.314,0-.424Zm-1.565-.923-11.786,6.819a.818.818,0,0,1-.746,0l-5.074-2.934c-.212-.12-.23-.314,0-.424l11.786-6.819a.827.827,0,0,1,.737,0l5.074,2.934c.184.083.184.277,0,.388Zm17.127,9.449,5.074,2.944c.212.12.23.314,0,.424l-4.853,2.768a.8.8,0,0,1-.737,0l-5.074-2.934c-.212-.12-.239-.314-.046-.424l4.853-2.768a.846.846,0,0,1,.783-.009Zm55.792,32.3,5.074,2.944c.212.12.23.314,0,.424l-4.862,2.768a.8.8,0,0,1-.737,0l-5-2.907c-.212-.12-.23-.314-.046-.424l4.862-2.768A.827.827,0,0,1,266.669,305.555Zm-69.918-26.4a.8.8,0,0,1-.737,0l-5.074-2.934c-.212-.12-.23-.314,0-.424l4.825-2.824a.828.828,0,0,1,.737,0l5.074,2.934c.212.129.23.323.046.434Zm62.5,22.146,5.074,2.944c.221.12.239.314,0,.424l-4.853,2.768a.8.8,0,0,1-.737,0l-5.074-2.934c-.221-.12-.239-.314-.046-.424l4.853-2.768a.827.827,0,0,1,.838-.028Zm58.159,47.623a.8.8,0,0,1-.737,0L311.6,345.99c-.221-.12-.239-.314,0-.424l4.8-2.805a.827.827,0,0,1,.737,0l5.074,2.934c.221.129.239.323.046.434Zm8.619-9.052,5.1,2.971c.212.12.23.314,0,.424l-4.853,2.768a.8.8,0,0,1-.737,0l-5.074-2.934c-.221-.129-.239-.323-.046-.434l4.853-2.768a.8.8,0,0,1,.755.009Zm-16.777,4.734-5.074-2.934c-.212-.12-.23-.314,0-.424l4.853-2.777a.827.827,0,0,1,.737,0l5.074,2.934c.212.129.23.323,0,.434l-4.862,2.768a.8.8,0,0,1-.727.037Zm-7.413-4.291-5.074-2.934c-.221-.129-.239-.314-.046-.424l4.853-2.8a.827.827,0,0,1,.737,0l5.074,2.934c.221.129.239.323,0,.434l-4.853,2.768a.8.8,0,0,1-.691.055Zm-7.422-4.291-5.074-2.934c-.212-.129-.23-.314,0-.424l4.853-2.814a.827.827,0,0,1,.737,0L300,332.786c.212.129.239.323.046.424l-4.862,2.768a.8.8,0,0,1-.774.083Zm24.2-.443,5.074,2.934c.212.12.239.314.046.424l-4.853,2.768a.845.845,0,0,1-.746,0l-5.074-2.934c-.212-.129-.23-.323,0-.434l4.853-2.768a.8.8,0,0,1,.7.046Zm-7.422-4.291,5.083,2.934c.212.12.23.314,0,.424l-4.853,2.768a.827.827,0,0,1-.737,0l-5.074-2.944c-.212-.12-.239-.314-.046-.424l4.853-2.768a.8.8,0,0,1,.773.046Zm-29.66-17.163,5.074,2.934c.212.12.23.314,0,.424l-4.853,2.768a.827.827,0,0,1-.737,0l-5.074-2.944c-.212-.12-.23-.314-.046-.424l4.862-2.768a.8.8,0,0,1,.773.046Zm7.413,4.346,5.074,2.934c.221.12.239.314.046.424L289.21,324.6a.827.827,0,0,1-.737,0l-5.074-2.944c-.221-.12-.239-.314,0-.424l4.853-2.768A.8.8,0,0,1,288.943,318.474Zm-14.834-8.591,5.074,2.944c.221.12.239.314,0,.424l-4.853,2.768a.827.827,0,0,1-.737,0l-5.074-2.944c-.221-.12-.239-.314-.046-.424l4.853-2.768a.827.827,0,0,1,.783-.018Zm29.669,17.154,5.074,2.934c.221.12.239.314.046.424l-4.853,2.768a.827.827,0,0,1-.737,0l-5.083-2.944c-.212-.12-.23-.314,0-.424l4.853-2.768A.8.8,0,0,1,303.778,327.037Zm-7.413-4.291,5.074,2.934c.212.12.23.314,0,.424l-4.853,2.768a.827.827,0,0,1-.737,0l-5.074-2.944c-.212-.12-.239-.314-.046-.424l4.862-2.768a.8.8,0,0,1,.773.009Zm9.466,27.941-5.074-2.934c-.221-.12-.239-.314-.046-.424l4.853-2.768a.827.827,0,0,1,.737,0l5.074,2.934c.221.129.239.323,0,.434l-4.853,2.768a.8.8,0,0,1-.691-.009Zm39.107-1.846,4.853-2.768a.8.8,0,0,1,.737,0l5.074,2.934c.221.129.239.323,0,.434l-4.853,2.768a.8.8,0,0,1-.737,0l-5.074-2.934C344.764,349.146,344.745,348.924,344.939,348.841Zm-9.669,2.427,4.853-2.768a.8.8,0,0,1,.737,0l7.763,4.5c.221.129.239.323,0,.434l-4.853,2.768a.8.8,0,0,1-.737,0l-7.809-4.512A.249.249,0,0,1,335.27,351.268Zm16.915-7.973,4.853-2.768a.8.8,0,0,1,.737,0l6.252,3.617c.212.12.23.314,0,.424l-4.853,2.768a.827.827,0,0,1-.737,0l-6.243-3.617C352.01,343.591,351.992,343.388,352.185,343.3Zm-4.788-2.768a.8.8,0,0,1-.737,0l-5.074-2.934c-.221-.129-.239-.323-.046-.434l4.853-2.768a.8.8,0,0,1,.737,0l5.074,2.934c.221.12.239.314.046.424Zm-21.013,13.638,4.853-2.768a.827.827,0,0,1,.737,0l9.761,5.647c.212.129.239.314,0,.424l-4.853,2.768a.818.818,0,0,1-.746,0l-9.751-5.647c-.175-.129-.193-.323,0-.434Zm-3.425,6.044,4.862-2.768a.827.827,0,0,1,.737,0l6.252,3.589c.212.129.23.314,0,.424l-4.862,2.814a.836.836,0,0,1-.737,0l-6.243-3.617c-.175-.148-.2-.341-.009-.452Zm-30.709-51.582a.8.8,0,0,1-.737,0l-5.074-2.934c-.212-.129-.23-.314-.046-.424l4.862-2.768a.836.836,0,0,1,.737,0l5.065,2.879c.212.129.23.314.046.424Zm14.834,8.582a.8.8,0,0,1-.737,0l-5.074-2.934c-.212-.12-.239-.314-.046-.424l4.862-2.814a.836.836,0,0,1,.737,0l5.074,2.934c.212.129.23.323,0,.434Zm32.9,19.027a.845.845,0,0,1-.746,0l-5.074-3c-.212-.129-.23-.323,0-.434l4.853-2.768a.8.8,0,0,1,.737,0l5.074,2.934c.212.12.239.314,0,.424Zm-40.314-23.3a.8.8,0,0,1-.737,0L293.861,310c-.221-.12-.239-.314-.046-.424l4.853-2.814a.827.827,0,0,1,.737,0l5.074,2.934c.221.129.239.323.046.434Zm14.834,8.582a.8.8,0,0,1-.737,0l-5.074-2.934c-.221-.12-.239-.314,0-.424l4.853-2.814a.827.827,0,0,1,.737,0l5.074,2.934c.221.129.239.323.046.434Zm4.816,39.014a.827.827,0,0,1,.737,0l7.809,4.521c.212.12.23.314,0,.424l-4.853,2.768a.8.8,0,0,1-.737,0l-7.809-4.522c-.212-.12-.23-.314,0-.424Zm5.829-32.859a.827.827,0,0,1-.737,0l-5.083-2.944c-.212-.12-.23-.314,0-.424l4.853-2.768a.8.8,0,0,1,.737,0l5.074,2.934c.221.12.239.314.046.424Zm7.413,4.291a.827.827,0,0,1-.737,0l-5.074-2.944c-.221-.12-.239-.314-.046-.424l4.853-2.768a.8.8,0,0,1,.737,0l5.083,2.934c.212.12.23.314,0,.424ZM181.907,281.028a.8.8,0,0,1,.737,0l12.5,7.225c.212.129.239.314.046.424l-4.862,2.814a.8.8,0,0,1-.737,0L177.1,284.267c-.221-.129-.239-.314-.046-.424Zm16.4,9.486a.8.8,0,0,1,.737,0l5.074,2.934c.212.129.239.314.046.424l-4.853,2.814a.818.818,0,0,1-.746,0l-5.074-2.934c-.212-.129-.23-.314,0-.424Zm100.1,55.882-5.074-2.934c-.212-.12-.23-.314-.046-.424l4.862-2.768a.827.827,0,0,1,.737,0l5.074,2.934c.212.129.23.323,0,.434l-4.853,2.768A.8.8,0,0,1,298.409,346.4Zm-85.268-47.3a.827.827,0,0,1,.737,0l5.074,2.934c.212.129.239.314.046.424l-4.862,2.814a.8.8,0,0,1-.737,0l-5.074-2.934c-.212-.129-.23-.314,0-.424Zm-38.674-22.358a.8.8,0,0,1,.737,0l5.1,2.981c.212.129.239.314.046.424l-4.853,2.768a.827.827,0,0,1-.737,0l-5.083-2.934c-.212-.129-.23-.314,0-.424Zm-12.275-1.476,11.8-6.828a.8.8,0,0,1,.737,0l5.1,2.98c.212.129.23.314.046.424l-11.8,6.828a.827.827,0,0,1-.737,0l-5.074-2.934c-.212-.2-.239-.388-.046-.5Zm78.693,39.845a.8.8,0,0,1,.737,0l6.243,3.608c.212.129.239.323.046.434l-4.853,2.768a.818.818,0,0,1-.746,0l-6.243-3.608c-.212-.129-.23-.323-.046-.434Zm-18.739-10.842a.8.8,0,0,1,.737,0l7.809,4.512c.212.129.23.323.046.434l-4.862,2.768a.8.8,0,0,1-.737,0l-7.809-4.512c-.212-.129-.23-.314,0-.424Zm35.912,20.78a.8.8,0,0,1,.737,0l41.768,24.167c.212.12.239.314.046.424l-4.853,2.768a.8.8,0,0,1-.737,0l-41.778-24.158c-.212-.129-.23-.323,0-.434Zm44.107,25.523a.827.827,0,0,1,.737,0l6.252,3.617c.212.129.23.314,0,.424l-4.853,2.814a.827.827,0,0,1-.737,0l-6.243-3.617c-.212-.12-.239-.314-.046-.424Zm-52.7-30.451a.8.8,0,0,1,.737,0l6.252,3.617c.212.12.23.314,0,.424l-4.853,2.768a.8.8,0,0,1-.737,0l-6.243-3.617c-.221-.12-.239-.314-.046-.424Zm61.29,35.452a.8.8,0,0,1,.737,0l6.243,3.608c.221.129.239.323,0,.434l-4.853,2.768a.8.8,0,0,1-.737,0L305.9,358.77c-.221-.129-.239-.314,0-.424Zm-78.491-45.4a.828.828,0,0,1,.737,0l6.243,3.617c.221.12.239.314,0,.424l-4.853,2.814a.827.827,0,0,1-.737,0l-6.243-3.617c-.221-.12-.239-.314-.046-.424ZM205.72,294.8a.8.8,0,0,1,.737,0l5.083,2.934c.212.129.23.314,0,.424l-4.816,2.777a.8.8,0,0,1-.737,0l-5.074-2.934c-.221-.129-.239-.314,0-.424Zm-16.575-11.617-5.074-2.934c-.212-.129-.239-.314-.046-.424l4.862-2.768a.836.836,0,0,1,.737,0l5.074,2.934c.212.129.23.314,0,.434l-4.853,2.768a.8.8,0,0,1-.737-.037Zm30.267,1.458-5.074-2.934c-.212-.12-.239-.314-.046-.424l4.853-2.768a.845.845,0,0,1,.746,0l5.074,2.944c.212.12.23.314,0,.424l-4.853,2.768a.8.8,0,0,1-.737-.037Zm19.632,27.424-14.825-8.582c-.221-.129-.239-.314-.046-.424l4.853-2.814a.827.827,0,0,1,.737,0l14.834,8.582c.212.129.239.314.046.424l-4.853,2.768A.818.818,0,0,1,239.044,312.07Zm-41.805-24.591a.8.8,0,0,1-.737,0l-5.074-2.934c-.221-.129-.239-.314-.046-.424l4.853-2.814a.827.827,0,0,1,.737,0l5.074,2.934c.221.129.239.323,0,.434Zm6.225-4.069-5.074-2.934c-.221-.12-.239-.314-.046-.424l4.853-2.768a.827.827,0,0,1,.737,0l5.074,2.934c.221.129.239.323.046.434l-4.853,2.768a.8.8,0,0,1-.737-.009Zm43.03,32.924L241.42,313.4c-.221-.129-.239-.314-.046-.424l4.853-2.805a.8.8,0,0,1,.737,0l5.083,2.934c.212.129.23.314,0,.424l-4.853,2.814a.8.8,0,0,1-.7.018Zm-32.836-19.378a.8.8,0,0,1-.737,0l-5.074-2.934c-.212-.129-.23-.314-.046-.424l4.862-2.768a.836.836,0,0,1,.737,0l5.074,2.934c.212.129.23.314,0,.434Zm69.918,40.9-5.074-2.934c-.212-.12-.23-.314,0-.424l4.862-2.814a.836.836,0,0,1,.737,0l5.074,2.934c.212.129.23.323.046.434l-4.862,2.768a.8.8,0,0,1-.783.037Zm-7.413-4.291-5.074-2.934c-.221-.12-.239-.314-.046-.424l4.834-2.851a.827.827,0,0,1,.737,0l5.074,2.934c.221.129.239.323,0,.434l-4.853,2.768a.8.8,0,0,1-.672.037ZM291,342.142l-5.074-2.934c-.221-.12-.239-.314,0-.424l4.853-2.768a.827.827,0,0,1,.737,0l5.074,2.934c.221.129.239.323.046.434l-4.853,2.768a.8.8,0,0,1-.783-.046Zm-29.669-17.209L256.254,322c-.221-.129-.239-.314-.046-.424l4.853-2.814a.827.827,0,0,1,.737,0l5.074,2.934c.221.129.239.314,0,.424l-4.807,2.814a.8.8,0,0,1-.737,0Zm7.413,4.291-5.074-2.934c-.212-.12-.23-.314-.046-.424l4.89-2.777a.827.827,0,0,1,.737,0l5.074,2.934c.212.129.23.323.046.434l-4.862,2.768a.8.8,0,0,1-.764.009Zm-14.834-8.582-5.074-2.934c-.212-.129-.23-.314,0-.424l4.853-2.814a.8.8,0,0,1,.737,0L259.5,317.4c.212.129.239.314.046.424l-4.862,2.814a.8.8,0,0,1-.773.009Zm-40.47-59.693a.8.8,0,0,1-.737,0l-5.074-2.934c-.221-.129-.239-.314-.046-.424l1.289-.747a.827.827,0,0,1,.737,0l5.083,2.944c.212.12.23.314,0,.424Zm36.833,23.392a.836.836,0,0,1-.737,0l-5.074-2.934c-.212-.129-.23-.323,0-.434l4.853-2.768a.8.8,0,0,1,.737,0l5.074,2.934c.212.12.23.314.046.424Zm-14.834-8.582a.836.836,0,0,1-.737,0l-5.074-2.934c-.212-.129-.23-.323,0-.434l4.816-2.824a.8.8,0,0,1,.737,0l5.074,2.934c.212.12.239.314.046.424Zm23.9,13.841a.827.827,0,0,1-.737,0l-5.074-2.944c-.221-.12-.239-.314-.046-.424l4.908-2.824a.8.8,0,0,1,.737,0l5.074,2.934c.221.12.239.314.046.424Zm-16.473-9.523a.827.827,0,0,1-.737,0l-5.074-2.934c-.221-.129-.239-.323-.046-.434l4.853-2.768a.8.8,0,0,1,.737,0l5.074,2.934c.221.12.239.314.046.424Zm31.308,18.114a.864.864,0,0,1-.737,0l-5.074-2.934c-.221-.129-.239-.323-.046-.434l4.853-2.768a.8.8,0,0,1,.737,0l5.074,2.934c.221.12.239.314.046.424Zm-7.422-4.3a.827.827,0,0,1-.737,0l-5.074-2.934c-.212-.129-.23-.323,0-.434l4.853-2.768a.8.8,0,0,1,.737,0l5.074,2.934c.212.12.23.314.046.424Zm-38.472-24.324a.8.8,0,0,1-.737,0l-5.074-2.934c-.221-.129-.239-.314-.046-.424l1.289-.747a.827.827,0,0,1,.737,0l5.074,2.944c.221.12.239.314.046.424Zm-22.256-12.919a.8.8,0,0,1-.737,0l-5.074-2.934c-.212-.129-.23-.314,0-.424l1.289-.747a.827.827,0,0,1,.737,0l5.074,2.944c.221.12.239.314.046.424Zm-10.193,5.9a.827.827,0,0,1-.737,0L190.01,259.6c-.221-.12-.239-.314-.046-.424l4.853-2.768a.827.827,0,0,1,.737,0l5.074,2.944c.221.12.239.314.046.424ZM181.7,278.85l-5.074-2.934c-.221-.129-.239-.314,0-.424l4.853-2.814a.827.827,0,0,1,.737,0l5.074,2.934c.221.129.239.314.046.424l-4.853,2.814a.8.8,0,0,1-.783.018Zm39.153-13.62a.8.8,0,0,1-.737,0l-5.074-2.934c-.212-.129-.23-.314,0-.424l1.289-.747a.827.827,0,0,1,.737,0l5.074,2.944c.212.12.239.314,0,.424Zm60.774,37.215a.836.836,0,0,1-.737,0l-5.074-2.934c-.212-.129-.23-.323-.046-.434l4.862-2.768a.8.8,0,0,1,.737,0l5.074,2.934c.212.12.23.314.046.424Z" transform="translate(-105.107 -81.705)" fill="#455a64"/>
        <path id="Path_21740" data-name="Path 21740" d="M354.46,345.761l-1.041.6-27.643,15.982-49.144-28.43-1.022-.591,28.674-16.582Z" transform="translate(-199.906 -86.671)" fill="#37474f"/>
        <path id="Path_21741" data-name="Path 21741" d="M353.527,346.459l-27.643,15.982-49.144-28.43,27.652-15.991Z" transform="translate(-200.013 -86.77)" fill="#263238"/>
      </g>
    </g>
    <g id="freepik--mail-box--inject-6" transform="translate(333.758 195.175)">
      <g id="freepik--MailBox--inject-6" transform="translate(0)">
        <path id="Path_21742" data-name="Path 21742" d="M92.025,212.634l11.262-6.459c.5-.3.866-.369,1.059-.249l1.372.794c.239.138.23.544-.064,1.172l-2.762,5.684,2.044,1.846a1.6,1.6,0,0,1-.295,2.713l-11.262,6.515-1.372-.8Z" transform="translate(-61.85 -205.87)" fill="#407bff"/>
        <path id="Path_21743" data-name="Path 21743" d="M92.025,212.634l11.262-6.459c.5-.3.866-.369,1.059-.249l1.372.794c.239.138.23.544-.064,1.172l-2.762,5.684,2.044,1.846a1.6,1.6,0,0,1-.295,2.713l-11.262,6.515-1.372-.8Z" transform="translate(-61.85 -205.87)" fill="#fff" opacity="0.5"/>
        <path id="Path_21744" data-name="Path 21744" d="M103.284,206.975c1.1-.637,1.547-.221.994.923l-2.762,5.684,2.044,1.846a1.6,1.6,0,0,1-.295,2.713L92,224.655V213.5Z" transform="translate(-60.475 -205.933)" fill="#407bff"/>
        <path id="Path_21745" data-name="Path 21745" d="M106.877,248.759a1.318,1.318,0,0,0,1.326-1.329V209.948a1.326,1.326,0,0,0-2.643,0V247.43a1.318,1.318,0,0,0,1.317,1.329Z" transform="translate(-76.646 -206.091)" fill="#455a64"/>
        <path id="Path_21746" data-name="Path 21746" d="M84.16,359.554V357.22H83.6a9.217,9.217,0,0,0-3.785-3.691c-5.82-3.368-15.249-3.368-21.068,0a9.134,9.134,0,0,0-3.785,3.691H54.39v2.261c0,2.242,1.4,4.494,4.355,6.2,5.82,3.368,15.249,3.368,21.068,0C82.677,363.993,84.178,361.769,84.16,359.554Z" transform="translate(-5.485 -217.081)" fill="#263238"/>
        <ellipse id="Ellipse_642" data-name="Ellipse 642" cx="14.899" cy="8.619" rx="14.899" ry="8.619" transform="translate(48.886 131.52)" fill="#455a64"/>
        <path id="Path_21747" data-name="Path 21747" d="M66.4,269.77v80.15a1.919,1.919,0,0,0,1.123,1.569,5.974,5.974,0,0,0,5.424,0,1.9,1.9,0,0,0,1.123-1.569V269.77Z" transform="translate(-6.455 -210.806)" fill="#37474f"/>
        <path id="Path_21748" data-name="Path 21748" d="M74.07,280.28v7.539l-7.67,4.429v-7.52Z" transform="translate(-6.455 -211.618)" fill="#263238"/>
        <path id="Path_21749" data-name="Path 21749" d="M98.531,261.554,84.35,269.767a1.061,1.061,0,0,0,.276.3l24.807,14.349c.212.12.378,0,.378-.231V266.27a28.057,28.057,0,0,0-2.072-10.04Z" transform="translate(-58.724 -209.761)" fill="#407bff"/>
        <path id="Path_21750" data-name="Path 21750" d="M98.531,261.554,84.35,269.767a1.061,1.061,0,0,0,.276.3l24.807,14.349c.212.12.378,0,.378-.231V266.27a28.057,28.057,0,0,0-2.072-10.04Z" transform="translate(-58.724 -209.761)" opacity="0.4"/>
        <path id="Path_21751" data-name="Path 21751" d="M86.6,248.437v20.07l23.5-13.62-.083-.194c-2.514-6.312-6.731-11.654-11.335-14.312a10.739,10.739,0,0,0-5.313-1.652C89.188,238.73,86.6,242.449,86.6,248.437Z" transform="translate(-61.084 -208.409)" fill="#407bff"/>
        <path id="Path_21752" data-name="Path 21752" d="M86.6,248.437v20.07l23.5-13.62-.083-.194c-2.514-6.312-6.731-11.654-11.335-14.312a10.739,10.739,0,0,0-5.313-1.652C89.188,238.73,86.6,242.449,86.6,248.437Z" transform="translate(-61.084 -208.409)" opacity="0.3"/>
        <path id="Path_21753" data-name="Path 21753" d="M82.96,293.626v-1.79h.175v.258a7.773,7.773,0,0,1,.46-1.449,13.424,13.424,0,0,1,5.93-6.044l16.787-9.717a2.84,2.84,0,0,1,2.532,0l25.672,14.847a3.947,3.947,0,0,0,.81-.923v1.845h0a.923.923,0,0,1-.516.738l-16.8,9.707a31.935,31.935,0,0,1-16.05,3.8A27.771,27.771,0,0,1,88.6,301.645c-3.775-2.168-5.635-5.057-5.635-8Z" transform="translate(-82.96 -211.179)" fill="#407bff"/>
        <path id="Path_21754" data-name="Path 21754" d="M82.96,293.626v-1.79h.175v.258a7.773,7.773,0,0,1,.46-1.449,13.424,13.424,0,0,1,5.93-6.044l16.787-9.717a2.84,2.84,0,0,1,2.532,0l25.672,14.847a3.947,3.947,0,0,0,.81-.923v1.845h0a.923.923,0,0,1-.516.738l-16.8,9.707a31.935,31.935,0,0,1-16.05,3.8A27.771,27.771,0,0,1,88.6,301.645c-3.775-2.168-5.635-5.057-5.635-8Z" transform="translate(-82.96 -211.179)" opacity="0.4"/>
        <path id="Path_21755" data-name="Path 21755" d="M84.411,290.656a13.424,13.424,0,0,1,5.93-6.044l16.787-9.717a2.84,2.84,0,0,1,2.532,0l25.672,14.838-16.5,9.541a32.036,32.036,0,0,1-16.05,3.8,27.873,27.873,0,0,1-13.361-3.257c-3.389-1.956-5.239-4.475-5.58-7.105a7.515,7.515,0,0,1,.571-2.058Z" transform="translate(-83.776 -211.179)" fill="#407bff"/>
        <path id="Path_21756" data-name="Path 21756" d="M84.411,290.656a13.424,13.424,0,0,1,5.93-6.044l16.787-9.717a2.84,2.84,0,0,1,2.532,0l25.672,14.838-16.5,9.541a32.036,32.036,0,0,1-16.05,3.8,27.873,27.873,0,0,1-13.361-3.257c-3.389-1.956-5.239-4.475-5.58-7.105a7.515,7.515,0,0,1,.571-2.058Z" transform="translate(-83.776 -211.179)" opacity="0.2"/>
        <path id="Path_21757" data-name="Path 21757" d="M83.01,292.574a7.513,7.513,0,0,1,.571-2.076,13.424,13.424,0,0,1,5.93-6.044l16.787-9.717a2.84,2.84,0,0,1,2.532,0L134.5,289.584l.295-.166a.776.776,0,0,0,0-1.467L108.83,272.974a2.757,2.757,0,0,0-2.532,0l-16.787,9.717a13.52,13.52,0,0,0-5.93,6.044,7.478,7.478,0,0,0-.589,2.205,6.75,6.75,0,0,0,.018,1.633Z" transform="translate(-82.946 -211.03)" fill="#407bff"/>
        <path id="Path_21758" data-name="Path 21758" d="M83.01,292.574a7.513,7.513,0,0,1,.571-2.076,13.424,13.424,0,0,1,5.93-6.044l16.787-9.717a2.84,2.84,0,0,1,2.532,0L134.5,289.584l.295-.166a.776.776,0,0,0,0-1.467L108.83,272.974a2.757,2.757,0,0,0-2.532,0l-16.787,9.717a13.52,13.52,0,0,0-5.93,6.044,7.478,7.478,0,0,0-.589,2.205,6.75,6.75,0,0,0,.018,1.633Z" transform="translate(-82.946 -211.03)" opacity="0.3"/>
        <path id="Path_21759" data-name="Path 21759" d="M110.1,287.589,84.14,272.566l.58-1.356,24.807,14.358Z" transform="translate(-58.817 -210.918)" fill="#407bff"/>
        <path id="Path_21760" data-name="Path 21760" d="M110.1,287.589,84.14,272.566l.58-1.356,24.807,14.358Z" transform="translate(-58.817 -210.918)" opacity="0.1"/>
        <g id="freepik--Letter--inject-6" transform="translate(27.809 19.326)">
          <path id="Path_21761" data-name="Path 21761" d="M71.87,246.365a1.357,1.357,0,0,1,.617-1.07l31.6-18.307a1.324,1.324,0,0,1,1.234,0l.7.406a1.357,1.357,0,0,1,.617,1.07v24.278a1.376,1.376,0,0,1-.617,1.07L74.421,272.1a1.406,1.406,0,0,1-1.243,0l-.691-.406a1.376,1.376,0,0,1-.617-1.07Z" transform="translate(-71.87 -226.816)" fill="#f5f5f5"/>
          <path id="Path_21762" data-name="Path 21762" d="M72.07,245.718l1.759,1.015,32.652-18.9a1.263,1.263,0,0,0-.433-.471l-.7-.4a1.324,1.324,0,0,0-1.234,0L72.475,245.256a1.189,1.189,0,0,0-.405.461Z" transform="translate(-71.895 -226.815)" fill="#e0e0e0"/>
          <path id="Path_21763" data-name="Path 21763" d="M107.38,276Z" transform="translate(-105.308 -230.614)" fill="#407bff"/>
          <path id="Path_21764" data-name="Path 21764" d="M71.873,246.808,72.2,247a.535.535,0,0,0-.322.526v24.278a.425.425,0,0,0,.193.406.4.4,0,0,0,.295,0l.129-.055,31.612-18.28a1.385,1.385,0,0,0,.617-1.07V228.528a1.294,1.294,0,0,0-.184-.618Z" transform="translate(-69.948 -226.899)" fill="#ebebeb"/>
          <path id="Path_21765" data-name="Path 21765" d="M71.909,246.812l14.632,5.472a2.364,2.364,0,0,0,2.827-.923l2.367-3.617,12.947-19.9-12.5,20.042,12.56,4.928a1.22,1.22,0,0,1-.193.618l-12.4-5.49-2.762,4.383a2.382,2.382,0,0,1-2.983.923l-1.943-.858-12.4,19.83a.443.443,0,0,1-.184-.406v-.452l12.56-19.009Z" transform="translate(-69.975 -226.894)" opacity="0.2"/>
        </g>
        <g id="freepik--letter--inject-6-2" data-name="freepik--letter--inject-6" transform="translate(35.286 23.626)">
          <path id="Path_21766" data-name="Path 21766" d="M63.74,250.977a1.385,1.385,0,0,1,.617-1.07l31.612-18.28a1.324,1.324,0,0,1,1.234,0l.7.4a1.385,1.385,0,0,1,.617,1.07v24.278a1.412,1.412,0,0,1-.617,1.08l-31.612,18.28a1.323,1.323,0,0,1-1.234,0l-.7-.4a1.385,1.385,0,0,1-.617-1.07Z" transform="translate(-63.74 -231.475)" fill="#f5f5f5"/>
          <path id="Path_21767" data-name="Path 21767" d="M63.94,250.415l1.75,1.015,32.662-18.944a1.309,1.309,0,0,0-.433-.461l-.7-.4a1.324,1.324,0,0,0-1.234,0l-31.612,18.28a1.31,1.31,0,0,0-.433.508Z" transform="translate(-63.756 -231.475)" fill="#e0e0e0"/>
          <path id="Path_21768" data-name="Path 21768" d="M99.25,280.67Z" transform="translate(-97.169 -235.275)" fill="#407bff"/>
          <path id="Path_21769" data-name="Path 21769" d="M63.743,251.468l.322.194a.535.535,0,0,0-.322.526v24.278a.425.425,0,0,0,.193.406.4.4,0,0,0,.295,0l.129-.055,31.612-18.28a1.385,1.385,0,0,0,.617-1.07V233.188a1.294,1.294,0,0,0-.184-.618Z" transform="translate(-61.809 -231.559)" fill="#ebebeb"/>
          <path id="Path_21770" data-name="Path 21770" d="M63.743,251.463l14.641,5.49a2.373,2.373,0,0,0,2.818-.923l2.357-3.608L96.524,232.5l-12.5,20.042,12.56,4.927a1.506,1.506,0,0,1-.193.618l-12.4-5.537-2.762,4.383a2.382,2.382,0,0,1-2.974.923L76.3,257,63.936,276.866a.425.425,0,0,1-.193-.406v-.406l12.532-19.046Z" transform="translate(-61.809 -231.554)" opacity="0.2"/>
        </g>
        <g id="freepik--letter--inject-6-3" data-name="freepik--letter--inject-6" transform="translate(42.772 27.924)">
          <path id="Path_21771" data-name="Path 21771" d="M55.62,255.637a1.357,1.357,0,0,1,.617-1.07l31.6-18.289a1.379,1.379,0,0,1,1.234,0l.7.406a1.357,1.357,0,0,1,.617,1.07v24.278a1.357,1.357,0,0,1-.617,1.07l-31.6,18.289a1.406,1.406,0,0,1-1.243,0l-.691-.406a1.357,1.357,0,0,1-.617-1.07Z" transform="translate(-55.62 -236.132)" fill="#f5f5f5"/>
          <path id="Path_21772" data-name="Path 21772" d="M55.82,255.028l1.759,1.015,32.652-18.9a1.236,1.236,0,0,0-.433-.461l-.7-.406a1.379,1.379,0,0,0-1.234,0l-31.6,18.289a1.254,1.254,0,0,0-.442.461Z" transform="translate(-55.645 -236.132)" fill="#e0e0e0"/>
          <path id="Path_21773" data-name="Path 21773" d="M91.25,285.32a.248.248,0,0,1-.12,0h0A.12.12,0,0,0,91.25,285.32Z" transform="translate(-89.178 -239.932)" fill="#407bff"/>
          <path id="Path_21774" data-name="Path 21774" d="M55.622,256.119l.322.194a.535.535,0,0,0-.322.526v24.287a.416.416,0,0,0,.193.4.4.4,0,0,0,.295,0l.129-.046,31.612-18.289a1.357,1.357,0,0,0,.617-1.07V237.848a1.294,1.294,0,0,0-.184-.618Z" transform="translate(-53.698 -236.217)" fill="#ebebeb"/>
          <path id="Path_21775" data-name="Path 21775" d="M55.66,256.123,70.292,261.6a2.382,2.382,0,0,0,2.827-.923l2.348-3.608L88.432,237.16l-12.5,20.033,12.56,4.928a1.22,1.22,0,0,1-.193.618l-12.4-5.49-2.762,4.383a2.382,2.382,0,0,1-2.983.923l-1.943-.867-12.4,19.83a.425.425,0,0,1-.184-.406V280.7l12.523-19.046Z" transform="translate(-53.726 -236.211)" opacity="0.2"/>
        </g>
        <path id="Path_21776" data-name="Path 21776" d="M40.53,236.048c2.514-1.32,5.847-1.089,9.494,1.033,4.1,2.353,7.79,6.635,10.378,11.534a36.346,36.346,0,0,1,1.621,3.5,29.479,29.479,0,0,1,2.256,10.769v20.5a2.657,2.657,0,0,0,1.262-.3L101.9,262.023a2.834,2.834,0,0,0,1.262-2.2V240.394c0-9.707-6.381-21.223-14.245-25.837-3.683-2.159-7.118-2.335-9.659-.923h0Z" transform="translate(-11.727 -206.4)" fill="#407bff"/>
        <path id="Path_21777" data-name="Path 21777" d="M40.53,236.048c2.514-1.32,5.847-1.089,9.494,1.033,4.1,2.353,7.79,6.635,10.378,11.534a36.346,36.346,0,0,1,1.621,3.5,29.479,29.479,0,0,1,2.256,10.769v20.5a2.657,2.657,0,0,0,1.262-.3L101.9,262.023a2.834,2.834,0,0,0,1.262-2.2V240.394c0-9.707-6.381-21.223-14.245-25.837-3.683-2.159-7.118-2.335-9.659-.923h0Z" transform="translate(-11.727 -206.4)" opacity="0.2"/>
        <path id="Path_21778" data-name="Path 21778" d="M78.836,263.86,42.473,284.945a2.657,2.657,0,0,1-1.262.3v-20.5a25.944,25.944,0,0,0-.681-5.73l38.9-22.506a26.4,26.4,0,0,1,.672,5.721v19.433a2.834,2.834,0,0,1-1.262,2.2Z" transform="translate(11.34 -208.237)" opacity="0.1"/>
        <path id="Path_21779" data-name="Path 21779" d="M94.277,254.179a29.479,29.479,0,0,1,2.256,10.769v20.476a2.508,2.508,0,0,0,.46-.055c0-1.172,0-7.742,0-20.421,0-15.05-11.556-24.619-14.733-25.837,4.1,2.353,7.79,6.635,10.378,11.534a36.349,36.349,0,0,1,1.639,3.534Z" transform="translate(-43.981 -208.438)" fill="#407bff"/>
        <path id="Path_21780" data-name="Path 21780" d="M94.277,254.179a29.479,29.479,0,0,1,2.256,10.769v20.476a2.508,2.508,0,0,0,.46-.055c0-1.172,0-7.742,0-20.421,0-15.05-11.556-24.619-14.733-25.837,4.1,2.353,7.79,6.635,10.378,11.534a36.349,36.349,0,0,1,1.639,3.534Z" transform="translate(-43.981 -208.438)" opacity="0.4"/>
        <path id="Path_21781" data-name="Path 21781" d="M109.274,282.937a.235.235,0,0,0,.378-.221V264.8a27.974,27.974,0,0,0-2.072-10.04l-.083-.194a33.756,33.756,0,0,0-1.731-3.691c-2.514-4.641-5.921-8.5-9.6-10.621a10.739,10.739,0,0,0-5.313-1.652,5.819,5.819,0,0,0-2.762.674c-2.486,1.329-3.941,4.54-3.941,9.034v19.609a.849.849,0,0,0,.378.655l-.571,1.356-.129-.074a2.764,2.764,0,0,1-.525-.508h0a2.772,2.772,0,0,1-.608-1.606V248.315c0-5.2,1.842-8.812,4.742-10.344,2.514-1.329,5.847-1.1,9.494,1.024,4.1,2.353,7.79,6.625,10.378,11.544a36.345,36.345,0,0,1,1.621,3.488A29.452,29.452,0,0,1,111.18,264.8v20.458h-.285a2.528,2.528,0,0,1-1.05-.3Z" transform="translate(-58.564 -208.286)" fill="#407bff"/>
        <path id="Path_21782" data-name="Path 21782" d="M109.274,282.937a.235.235,0,0,0,.378-.221V264.8a27.974,27.974,0,0,0-2.072-10.04l-.083-.194a33.756,33.756,0,0,0-1.731-3.691c-2.514-4.641-5.921-8.5-9.6-10.621a10.739,10.739,0,0,0-5.313-1.652,5.819,5.819,0,0,0-2.762.674c-2.486,1.329-3.941,4.54-3.941,9.034v19.609a.849.849,0,0,0,.378.655l-.571,1.356-.129-.074a2.764,2.764,0,0,1-.525-.508h0a2.772,2.772,0,0,1-.608-1.606V248.315c0-5.2,1.842-8.812,4.742-10.344,2.514-1.329,5.847-1.1,9.494,1.024,4.1,2.353,7.79,6.625,10.378,11.544a36.345,36.345,0,0,1,1.621,3.488A29.452,29.452,0,0,1,111.18,264.8v20.458h-.285a2.528,2.528,0,0,1-1.05-.3Z" transform="translate(-58.564 -208.286)" opacity="0.1"/>
      </g>
    </g>
    <g id="freepik--Envelopes--inject-6" transform="translate(137.522 144.313)">
      <g id="freepik--Envelope--inject-6" transform="translate(29.936)">
        <g id="freepik--letter--inject-6-4" data-name="freepik--letter--inject-6">
          <path id="Path_21783" data-name="Path 21783" d="M309.227,223.768a5.271,5.271,0,0,0-2.394-4.152L188.811,151.332a5.276,5.276,0,0,0-4.788,0l-2.7,1.559a5.3,5.3,0,0,0-2.385,4.152v94.01a5.327,5.327,0,0,0,2.385,4.152l118.031,68.33a5.312,5.312,0,0,0,4.779,0l2.7-1.559a5.327,5.327,0,0,0,2.394-4.152Z" transform="translate(-178.94 -150.751)" fill="#407bff"/>
          <g id="Group_42438" data-name="Group 42438" transform="translate(0 0.007)" opacity="0.7">
            <path id="Path_21784" data-name="Path 21784" d="M309.227,223.768a5.271,5.271,0,0,0-2.394-4.152L188.811,151.332a5.276,5.276,0,0,0-4.788,0l-2.7,1.559a5.3,5.3,0,0,0-2.385,4.152v94.01a5.327,5.327,0,0,0,2.385,4.152l118.031,68.33a5.312,5.312,0,0,0,4.779,0l2.7-1.559a5.327,5.327,0,0,0,2.394-4.152Z" transform="translate(-178.94 -150.757)" fill="#fff"/>
          </g>
          <path id="Path_21785" data-name="Path 21785" d="M308.587,221.405l-6.786,3.922L179.7,154.672a5.016,5.016,0,0,1,1.685-1.79l2.707-1.55a5.184,5.184,0,0,1,4.77,0l118.031,68.284a4.812,4.812,0,0,1,1.694,1.79Z" transform="translate(-179 -150.75)" fill="#407bff"/>
          <path id="Path_21786" data-name="Path 21786" d="M308.587,221.405l-6.786,3.922L179.7,154.672a5.016,5.016,0,0,1,1.685-1.79l2.707-1.55a5.184,5.184,0,0,1,4.77,0l118.031,68.284a4.812,4.812,0,0,1,1.694,1.79Z" transform="translate(-179 -150.75)" fill="#fff" opacity="0.8"/>
          <path id="Path_21787" data-name="Path 21787" d="M188.323,229.673v94.01a5.271,5.271,0,0,1-2.394,4.152l-2.7,1.569a4.243,4.243,0,0,1-.654.3,5.309,5.309,0,0,1-.985.221,5.89,5.89,0,0,1-1.888-.065l-.47-.12-.295-.1a1.425,1.425,0,0,0,1.16-.046,1.644,1.644,0,0,0,.737-1.569V234.01a2.1,2.1,0,0,0-1.243-2.039l1.243-.729,6.786-3.922a4.889,4.889,0,0,1,.7,2.353Z" transform="translate(-58.036 -156.665)" fill="#407bff" opacity="0.1"/>
          <path id="Path_21788" data-name="Path 21788" d="M188.323,229.673v94.01a5.271,5.271,0,0,1-2.394,4.152l-2.7,1.569a4.243,4.243,0,0,1-.654.3,5.309,5.309,0,0,1-.985.221,5.89,5.89,0,0,1-1.888-.065l-.47-.12-.295-.1a1.425,1.425,0,0,0,1.16-.046,1.644,1.644,0,0,0,.737-1.569V234.01a2.1,2.1,0,0,0-1.243-2.039l1.243-.729,6.786-3.922a4.889,4.889,0,0,1,.7,2.353Z" transform="translate(-58.036 -156.665)" opacity="0.05"/>
          <path id="Path_21789" data-name="Path 21789" d="M309.839,225.655l-56.676,21.223a9.2,9.2,0,0,1-10.939-3.608l-9.1-13.98L187.738,155l43.573,74.808-44.273,21.6a5.027,5.027,0,0,0,.746,2.4l43.665-23.77L242.02,247a9.2,9.2,0,0,0,11.538,3.553l7.542-3.331L309.12,324a1.644,1.644,0,0,0,.737-1.569v-1.569l-48.518-73.747Z" transform="translate(-187.038 -151.078)" fill="#407bff" opacity="0.2"/>
          <path id="Path_21790" data-name="Path 21790" d="M309.839,225.655l-56.676,21.223a9.2,9.2,0,0,1-10.939-3.608l-9.1-13.98L187.738,155l43.573,74.808-44.273,21.6a5.027,5.027,0,0,0,.746,2.4l43.665-23.77L242.02,247a9.2,9.2,0,0,0,11.538,3.553l7.542-3.331L309.12,324a1.644,1.644,0,0,0,.737-1.569v-1.569l-48.518-73.747Z" transform="translate(-187.038 -151.078)" opacity="0.05"/>
        </g>
      </g>
      <g id="freepik--envelope--inject-6-2" data-name="freepik--envelope--inject-6" transform="translate(0 17.336)">
        <g id="freepik--letter--inject-6-5" data-name="freepik--letter--inject-6">
          <path id="Path_21791" data-name="Path 21791" d="M341.7,242.548a5.3,5.3,0,0,0-2.385-4.152L221.281,170.112a5.257,5.257,0,0,0-4.779,0l-2.7,1.559a5.3,5.3,0,0,0-2.394,4.152v94.01a5.317,5.317,0,0,0,2.394,4.152L331.826,342.27a5.331,5.331,0,0,0,4.788,0l2.726-1.6a5.345,5.345,0,0,0,2.385-4.152Z" transform="translate(-211.401 -169.537)" fill="#407bff"/>
          <g id="Group_42439" data-name="Group 42439" transform="translate(0.009)" opacity="0.5">
            <path id="Path_21792" data-name="Path 21792" d="M341.7,242.548a5.3,5.3,0,0,0-2.385-4.152L221.281,170.112a5.257,5.257,0,0,0-4.779,0l-2.7,1.559a5.3,5.3,0,0,0-2.394,4.152v94.01a5.317,5.317,0,0,0,2.394,4.152L331.826,342.27a5.331,5.331,0,0,0,4.788,0l2.726-1.6a5.345,5.345,0,0,0,2.385-4.152Z" transform="translate(-211.41 -169.537)" fill="#fff"/>
          </g>
          <path id="Path_21793" data-name="Path 21793" d="M341.086,240.186l-6.8,3.922-122.1-70.646a5.015,5.015,0,0,1,1.685-1.79l2.707-1.55a5.2,5.2,0,0,1,4.779,0L339.42,238.4a4.832,4.832,0,0,1,1.667,1.79Z" transform="translate(-211.481 -169.538)" fill="#407bff"/>
          <path id="Path_21794" data-name="Path 21794" d="M341.086,240.186l-6.8,3.922-122.1-70.646a5.015,5.015,0,0,1,1.685-1.79l2.707-1.55a5.2,5.2,0,0,1,4.779,0L339.42,238.4a4.832,4.832,0,0,1,1.667,1.79Z" transform="translate(-211.481 -169.538)" fill="#fff" opacity="0.6"/>
          <path id="Path_21795" data-name="Path 21795" d="M220.767,248.453v94.01a5.28,5.28,0,0,1-2.367,4.125l-2.689,1.569a4.365,4.365,0,0,1-.663.3,5.147,5.147,0,0,1-.985.221,5.9,5.9,0,0,1-1.888-.065l-.46-.129a1.524,1.524,0,0,1-.285-.111,1.425,1.425,0,0,0,1.142,0,1.672,1.672,0,0,0,.737-1.578v-94a2.1,2.1,0,0,0-1.243-2.039l1.243-.729,6.8-3.922A4.99,4.99,0,0,1,220.767,248.453Z" transform="translate(-90.462 -175.452)" opacity="0.1"/>
          <path id="Path_21796" data-name="Path 21796" d="M342.369,244.436l-56.677,21.223a9.2,9.2,0,0,1-10.939-3.608l-9.107-13.97L220.259,173.79,263.832,248.6l-44.273,21.6a5.027,5.027,0,0,0,.746,2.4l43.675-23.779,10.58,16.96a9.2,9.2,0,0,0,11.529,3.553L293.62,266l48.012,76.792a1.671,1.671,0,0,0,.737-1.578v-1.569L293.851,265.9Z" transform="translate(-219.559 -169.866)" fill="#407bff" opacity="0.4"/>
          <path id="Path_21797" data-name="Path 21797" d="M342.369,244.436l-56.677,21.223a9.2,9.2,0,0,1-10.939-3.608l-9.107-13.97L220.259,173.79,263.832,248.6l-44.273,21.6a5.027,5.027,0,0,0,.746,2.4l43.675-23.779,10.58,16.96a9.2,9.2,0,0,0,11.529,3.553L293.62,266l48.012,76.792a1.671,1.671,0,0,0,.737-1.578v-1.569L293.851,265.9Z" transform="translate(-219.559 -169.866)" opacity="0.05"/>
        </g>
      </g>
    </g>
    <g id="freepik--open-envelope--inject-6" transform="translate(107.605 148.341)">
      <g id="freepik--open-envelope--inject-6-2" data-name="freepik--open-envelope--inject-6" transform="translate(0)">
        <path id="Path_21798" data-name="Path 21798" d="M374.248,262.312,251.428,191.26l-4.917,2.842a5.142,5.142,0,0,0-2.311,4v90.8a5.123,5.123,0,0,0,2.311,4l118.2,68.376a5.1,5.1,0,0,0,4.6,0l2.606-1.5a5.142,5.142,0,0,0,2.311-4Z" transform="translate(-244.2 -157.907)" fill="#407bff"/>
        <path id="Path_21799" data-name="Path 21799" d="M374.248,262.312,251.428,191.26l-4.917,2.842a5.142,5.142,0,0,0-2.311,4v90.8a5.123,5.123,0,0,0,2.311,4l118.2,68.376a5.1,5.1,0,0,0,4.6,0l2.606-1.5a5.142,5.142,0,0,0,2.311-4Z" transform="translate(-244.2 -157.907)" opacity="0.2"/>
        <path id="Path_21800" data-name="Path 21800" d="M244.835,180.768l-.5-.277,1.906-1.107h0a2.814,2.814,0,0,1,.506-.24L300.8,159.065a3.725,3.725,0,0,1,4.153,1.329l60.461,88.483a10.479,10.479,0,0,1,1.565,5.057V259.8l-1.842,1.1L244.2,188.75v-5.878A3.974,3.974,0,0,1,244.835,180.768Z" transform="translate(-236.935 -155.406)" fill="#407bff"/>
        <path id="Path_21801" data-name="Path 21801" d="M244.71,160.912a3.06,3.06,0,0,1,.626.664l60.47,88.483a9.421,9.421,0,0,1,1.123,2.528l1.842-1.089a12.108,12.108,0,0,0-.488-1.338h0c-.083-.185-.166-.36-.258-.535l-.046-.083a4.823,4.823,0,0,0-.322-.535L247.2,160.524a2.944,2.944,0,0,0-.3-.369l-.322-.3Z" transform="translate(-179.194 -155.482)" opacity="0.1"/>
        <path id="Path_21802" data-name="Path 21802" d="M312.28,180.482a2.945,2.945,0,0,1,.516-.249l54.061-20.079a3.677,3.677,0,0,1,3.518.664l1.842-1.089a3.742,3.742,0,0,0-3.527-.664l-54.052,20.07a2.861,2.861,0,0,0-.506.249Z" transform="translate(-304.858 -155.406)" fill="#fff" opacity="0.35"/>
        <path id="Path_21803" data-name="Path 21803" d="M245.872,256.955a5.881,5.881,0,0,0-.322-.535A5.881,5.881,0,0,1,245.872,256.955Z" transform="translate(-117.068 -162.941)" fill="#407bff"/>
        <path id="Path_21804" data-name="Path 21804" d="M312.212,160.1l-.322-.3Z" transform="translate(-244.495 -155.477)" fill="#407bff"/>
        <path id="Path_21805" data-name="Path 21805" d="M245.158,259.038a12.105,12.105,0,0,0-.488-1.338,12.111,12.111,0,0,1,.488,1.338Z" transform="translate(-115.543 -163.04)" fill="#407bff"/>
        <path id="Path_21806" data-name="Path 21806" d="M245.478,257.615c-.083-.185-.166-.36-.258-.535C245.312,257.255,245.395,257.431,245.478,257.615Z" transform="translate(-116.37 -162.992)" fill="#407bff"/>
        <path id="Path_21807" data-name="Path 21807" d="M245.2,257.7Z" transform="translate(-116.073 -163.04)" opacity="0.2"/>
        <path id="Path_21808" data-name="Path 21808" d="M244.67,259.15Z" transform="translate(-115.055 -163.152)" opacity="0.2"/>
        <path id="Path_21809" data-name="Path 21809" d="M312.24,159.8Z" transform="translate(-244.845 -155.477)" opacity="0.2"/>
        <path id="Path_21810" data-name="Path 21810" d="M245.546,257.073a.379.379,0,0,0-.046-.083.38.38,0,0,1,.046.083Z" transform="translate(-116.696 -162.985)" opacity="0.2"/>
        <path id="Path_21811" data-name="Path 21811" d="M311.864,160.489a3.8,3.8,0,0,0-.3-.369A2.4,2.4,0,0,1,311.864,160.489Z" transform="translate(-243.843 -155.502)" opacity="0.2"/>
        <path id="Path_21812" data-name="Path 21812" d="M307.033,161.573l60.47,88.483a10.572,10.572,0,0,1,1.556,5.057v5.878L246.24,189.939V184.07a4.263,4.263,0,0,1,2.587-3.691l54.061-20.125A3.679,3.679,0,0,1,307.033,161.573Z" transform="translate(-240.89 -155.498)" fill="#407bff"/>
        <path id="Path_21813" data-name="Path 21813" d="M246.259,185.887a4.02,4.02,0,0,1,.654-2.067l121.733,70.6h0a9.061,9.061,0,0,1,.424,2.51v5.878L246.25,191.756Z" transform="translate(-240.909 -157.333)" opacity="0.05"/>
        <path id="Path_21814" data-name="Path 21814" d="M256.118,158.7a1.431,1.431,0,0,1,.571-1.292l3.757-2.169a1.406,1.406,0,0,1,1.409.148L362.592,213.7a4.413,4.413,0,0,1,2,3.46V338.037a1.4,1.4,0,0,1-.58,1.292l-3.739,2.168a1.425,1.425,0,0,1-1.409-.138L258.107,283.087a4.431,4.431,0,0,1-1.989-3.46Z" transform="translate(-245.519 -155.115)" fill="#f0f0f0"/>
        <path id="Path_21815" data-name="Path 21815" d="M362.926,341.586,262.179,283.268a4.431,4.431,0,0,1-1.989-3.46V158.881c0-1.273.921-1.79,1.989-1.153l100.747,58.309a4.431,4.431,0,0,1,1.989,3.46V340.377C364.915,341.678,364.022,342.2,362.926,341.586Z" transform="translate(-249.591 -155.296)" fill="#fafafa"/>
        <path id="Path_21817" data-name="Path 21817" d="M256.7,345.256a1.506,1.506,0,0,1-.47,1.218l3.619-2.085a1.4,1.4,0,0,0,.589-1.292V222.215a4.011,4.011,0,0,0-.589-1.965l-3.739,2.159a4.039,4.039,0,0,1,.589,1.975Z" transform="translate(-141.368 -160.147)" fill="#e0e0e0"/>
        <path id="Path_21818" data-name="Path 21818" d="M250.99,296.879a1.119,1.119,0,0,0,.129.185l51.188-16.222a8.812,8.812,0,0,1,11.05,3.414l54.724,81.479,2.026,1.172h0a1.645,1.645,0,0,0,1.565.175L315.4,283.111a8.848,8.848,0,0,0-11.05-3.423Z" transform="translate(-247.878 -164.681)" fill="#407bff"/>
        <path id="Path_21819" data-name="Path 21819" d="M251.119,293.218l-.129-.111L300.8,366.743l2.026,1.172h0a1.673,1.673,0,0,0,1.565.175L253.089,292Z" transform="translate(-180.593 -165.689)" fill="#fff" opacity="0.4"/>
        <path id="Path_21820" data-name="Path 21820" d="M312.12,296.877a1.119,1.119,0,0,0,.129.185l51.188-16.222a8.8,8.8,0,0,1,11.05,3.414l2.026-1.181a8.83,8.83,0,0,0-11.05-3.4Z" transform="translate(-309.008 -164.679)" fill="#fff" opacity="0.4"/>
        <path id="Path_21821" data-name="Path 21821" d="M253.33,197.622h0c.111-.664.46-.849.921-.535a2.666,2.666,0,0,1,.589.609l.258.36L305.6,274.995l7.542,10.529a4.3,4.3,0,0,0,4.153,1.559l6.51-1.55,49.724-18.326a2.527,2.527,0,0,1,1.013,0,1.836,1.836,0,0,1,.378.12l-1.842-1.089L325.439,283.77l-6.271,2.242a4.277,4.277,0,0,1-4.153-1.559l-7.542-10.519-50.756-77.3a2.027,2.027,0,0,0-.571-.526l4.392-2.538L258.7,192.51l-3.039,1.753A5.278,5.278,0,0,0,253.33,197.622Z" transform="translate(-253.284 -158.004)" fill="#407bff"/>
        <path id="Path_21822" data-name="Path 21822" d="M308.84,281.814l7.542,10.529a4.3,4.3,0,0,0,4.153,1.559l6.51-1.55-.129-.111-.313-.5-4.263,1.015a4.277,4.277,0,0,1-4.153-1.559l-7.468-10.409Z" transform="translate(-256.519 -164.823)" fill="#fff" opacity="0.4"/>
        <path id="Path_21823" data-name="Path 21823" d="M328.8,194.173l3.039-1.753,1.842,1.061-4.392,2.538h0a1.935,1.935,0,0,1,.571.526l50.756,77.3.074.1h0l-1.842,1.024-50.507-76.948-.258-.36a2.664,2.664,0,0,0-.589-.609c-.451-.314-.8-.129-.921.535h0a5.279,5.279,0,0,1,2.228-3.414Z" transform="translate(-326.487 -157.997)" opacity="0.1"/>
        <path id="Path_21824" data-name="Path 21824" d="M244.23,274.525l10.838-6.266v93.466a5.142,5.142,0,0,1-2.311,4l-2.606,1.5a5.1,5.1,0,0,1-4.6,0l-1.3-.747Z" transform="translate(-125.048 -163.855)" fill="#407bff"/>
        <path id="Path_21825" data-name="Path 21825" d="M244.23,274.525l10.838-6.266v93.466a5.142,5.142,0,0,1-2.311,4l-2.606,1.5a5.1,5.1,0,0,1-4.6,0l-1.3-.747Z" transform="translate(-125.048 -163.855)" opacity="0.15"/>
        <path id="Path_21826" data-name="Path 21826" d="M252.092,198.573v90.79a4.722,4.722,0,0,0,.718,2.344,5.054,5.054,0,0,0,1.354,1.523l.092.046a1.406,1.406,0,0,0,.147.1l118.2,68.376h0a1.645,1.645,0,0,0,1.575.185,1.4,1.4,0,0,0,.691-1.107,2.95,2.95,0,0,0,0-.415v-90.8a2.008,2.008,0,0,0-2.6-2.048l-49.724,18.326-6.51,1.55a4.3,4.3,0,0,1-4.153-1.559l-7.542-10.529-50.507-76.939-.258-.36C252.792,196.875,252.092,197.1,252.092,198.573Z" transform="translate(-252.092 -158.374)" fill="#407bff"/>
        <path id="Path_21827" data-name="Path 21827" d="M330.931,299.913l-.157-.1-.083-.055a4.905,4.905,0,0,1-1.354-1.513,4.722,4.722,0,0,1-.718-2.307l52.312-14.026-34.991,26.658Z" transform="translate(-328.62 -164.91)" fill="#407bff"/>
        <path id="Path_21828" data-name="Path 21828" d="M330.931,299.913l-.157-.1-.083-.055a4.905,4.905,0,0,1-1.354-1.513,4.722,4.722,0,0,1-.718-2.307l52.312-14.026-34.991,26.658Z" transform="translate(-328.62 -164.91)" opacity="0.2"/>
        <path id="Path_21829" data-name="Path 21829" d="M304.341,367.832a1.6,1.6,0,0,1-.718,1.523,1.636,1.636,0,0,1-1.575-.175h0l-40.709-23.558-9.3-52.311,52.3,73.008Z" transform="translate(-181.522 -165.79)" fill="#407bff"/>
        <path id="Path_21830" data-name="Path 21830" d="M252.039,284.547l56.594,84.044a1.6,1.6,0,0,0,.718-1.523v-1.5L254.1,283.44h0Z" transform="translate(-186.532 -165.028)" opacity="0.15"/>
        <path id="Path_21831" data-name="Path 21831" d="M252.85,298.1a4.905,4.905,0,0,0,1.354,1.513l.083.055L372.64,368.148h0a1.636,1.636,0,0,0,1.575.175l-56.6-84.054a8.876,8.876,0,0,0-11.123-3.423Z" transform="translate(-252.132 -164.769)" fill="#407bff"/>
        <path id="Path_21832" data-name="Path 21832" d="M246.042,259.15l-1.842,1.089a9.246,9.246,0,0,1,.433,2.528v5.869l1.842-1.089v-5.878a9.244,9.244,0,0,0-.433-2.519Z" transform="translate(-116.427 -163.152)" opacity="0.15"/>
        <path id="Path_21833" data-name="Path 21833" d="M246.23,272.053l1.878,1.089,1.9-1.1,4.669-2.694-1.814-1.08Z" transform="translate(-126.496 -163.856)" fill="#407bff"/>
        <path id="Path_21834" data-name="Path 21834" d="M293.493,272.09l6.713-3.82,1.842,1.08-4.669,2.694-1.9,1.1h0l-.359-.111a2.528,2.528,0,0,0-1.013,0l-3.849,1.449-43.38,16.01-.681-1.006Z" transform="translate(-173.842 -163.856)" opacity="0.1"/>
      </g>
    </g>
    <g id="freepik--Clouds--inject-6" transform="translate(325.857 71.493)">
      <g id="freepik--clouds--inject-6-2" data-name="freepik--clouds--inject-6" transform="translate(0)">
        <g id="freepik--Cloud--inject-6" transform="translate(0 24.071)">
          <path id="Path_21835" data-name="Path 21835" d="M103.44,101.75l7.017,4.06a8.033,8.033,0,0,1-.055-.923v-2.03c0-3.626,2.541-5.094,5.672-3.285a11.2,11.2,0,0,1,3.379,3.257c.506-4.558,4.079-6.256,8.416-3.746,4.678,2.713,8.481,9.3,8.481,14.764v3.045a8.07,8.07,0,0,1-.718,3.534l5.829,3.368a6.988,6.988,0,0,1,3.14,5.463c0,2.012-1.409,2.824-3.14,1.846L103.44,109.067a6.97,6.97,0,0,1-3.14-5.453C100.273,101.565,101.682,100.762,103.44,101.75Z" transform="translate(-100.3 -97.921)" fill="#f0f0f0"/>
        </g>
        <g id="freepik--cloud--inject-6-2" data-name="freepik--cloud--inject-6" transform="translate(33.168)">
          <path id="Path_21836" data-name="Path 21836" d="M57.063,76.6,65.7,81.593a9.671,9.671,0,0,1-.074-1.144V77.9c0-4.457,3.122-6.266,6.98-4.032a13.594,13.594,0,0,1,4.162,4c.626-5.61,5.018-7.7,10.359-4.614,5.764,3.34,10.442,11.461,10.442,18.1v3.746a9.91,9.91,0,0,1-.921,4.346l7.173,4.152a8.585,8.585,0,0,1,3.877,6.718c0,2.482-1.74,3.479-3.877,2.242L57.027,85.5a8.557,8.557,0,0,1-3.877-6.718C53.187,76.324,54.918,75.328,57.063,76.6Z" transform="translate(-53.15 -71.835)" fill="#f0f0f0"/>
        </g>
      </g>
    </g>
    <g id="freepik--paper-plane--inject-6" transform="translate(42.696 77.413)">
      <g id="freepik--paper-plane--inject-6-2" data-name="freepik--paper-plane--inject-6" transform="translate(0)">
        <path id="Path_21837" data-name="Path 21837" d="M451.885,162.97l-32.569-20.9-14.356,4.614Z" transform="translate(-404.96 -83.18)" fill="#407bff"/>
        <path id="Path_21838" data-name="Path 21838" d="M433.109,162.145l-28.15-23.53,6.252-7.234Z" transform="translate(-386.184 -82.354)" fill="#407bff"/>
        <path id="Path_21839" data-name="Path 21839" d="M404.96,139.22v5.463l28.15,18.068Z" transform="translate(-386.184 -82.96)" fill="#407bff"/>
        <path id="Path_21840" data-name="Path 21840" d="M404.96,139.22v5.463l28.15,18.068Z" transform="translate(-386.184 -82.96)" opacity="0.25"/>
        <path id="Path_21841" data-name="Path 21841" d="M363.38,134.058a.692.692,0,0,0,.47-1.2,24.036,24.036,0,0,1-2.661-2.907.691.691,0,1,0-1.1.84,25.463,25.463,0,0,0,2.818,3.082A.717.717,0,0,0,363.38,134.058Zm-5.184-6.893a.652.652,0,0,0,.313-.074.684.684,0,0,0,.3-.923,23.577,23.577,0,0,1-1.842-5.047.691.691,0,1,0-1.344.323,24.375,24.375,0,0,0,1.934,5.343.69.69,0,0,0,.635.378Zm-2.523-9.754h0a.691.691,0,0,0,.663-.72c0-.378,0-.747,0-1.117a25.513,25.513,0,0,1,.359-4.254.691.691,0,1,0-1.363-.231,27.3,27.3,0,0,0-.378,4.485v1.172a.691.691,0,0,0,.718.664Zm1.482-9.975a.691.691,0,0,0,.654-.471,29.668,29.668,0,0,1,2.238-4.909.711.711,0,0,0-.258-.923.7.7,0,0,0-.921.258,30.618,30.618,0,0,0-2.33,5.149.693.693,0,0,0,.424.923.918.918,0,0,0,.2-.028ZM362,98.569a.69.69,0,0,0,.543-.268,35.321,35.321,0,0,1,3.628-4.023.692.692,0,1,0-.921-1.006,37.274,37.274,0,0,0-3.775,4.18.693.693,0,0,0,.129.923.681.681,0,0,0,.405.194Zm7.21-7.087a.681.681,0,0,0,.414-.138,44.461,44.461,0,0,1,4.54-3,.7.7,0,0,0,.249-.923.681.681,0,0,0-.921-.249,45.66,45.66,0,0,0-4.678,3.091.692.692,0,0,0,.414,1.246Zm72.367-2.676a.692.692,0,0,0,.35-1.292c-1.6-.923-3.26-1.79-4.945-2.593a.7.7,0,0,0-.95.864.682.682,0,0,0,.361.391c1.648.784,3.278,1.633,4.844,2.538a.68.68,0,0,0,.35.092Zm-63.684-2.482a.653.653,0,0,0,.295-.065c1.639-.794,3.324-1.523,5.018-2.178a.71.71,0,1,0-.525-1.32c-1.722.664-3.444,1.412-5.12,2.224a.692.692,0,0,0,.3,1.31Zm54.577-1.846a.709.709,0,0,0,.645-.443.692.692,0,0,0-.4-.923c-1.722-.674-3.5-1.292-5.276-1.846a.693.693,0,0,0-.4,1.329c1.74.517,3.481,1.126,5.166,1.781a.653.653,0,0,0,.258.046Zm-45.12-1.846a.524.524,0,0,0,.2,0c1.731-.526,3.508-.987,5.285-1.375a.716.716,0,0,0-.331-1.393c-1.842.4-3.628.867-5.4,1.412a.692.692,0,0,0-.46.867.7.7,0,0,0,.663.489ZM422.8,81.424a.691.691,0,0,0,.672-.535.7.7,0,0,0-.525-.83c-1.8-.415-3.637-.766-5.479-1.033a.692.692,0,1,0-.2,1.366c1.842.268,3.61.609,5.378,1.024Zm-25.617-1.061h.1c1.8-.268,3.628-.461,5.442-.581a.692.692,0,1,0-.092-1.375q-2.762.18-5.525.581a.692.692,0,0,0,.1,1.375Zm15.58-.5a.693.693,0,0,0,.055-1.384c-1.842-.148-3.729-.231-5.58-.231h0a.692.692,0,0,0,0,1.384c1.842,0,3.683.083,5.47.231Z" transform="translate(-349.3 -78.25)" fill="#e0e0e0"/>
      </g>
    </g>
    <g id="Group_41717" data-name="Group 41717" transform="matrix(0.839, 0.545, -0.545, 0.839, 128.802, 180.336)">
      <text id="HashingBits" transform="translate(26.509 14)" fill="#2d83ee" font-size="14" font-family="VisbyCF-DemiBold, Visby CF" font-weight="300"><tspan x="0" y="0">HashingBits</tspan></text>
      <g id="Group_41716" data-name="Group 41716" transform="translate(0 0)">
        <path id="_4424_Converted_" data-name="4424 [Converted]" d="M.141,9.928V9.3A6.783,6.783,0,0,0,3.6,5.2a2.465,2.465,0,0,1-1.3.455A2.063,2.063,0,0,1,.669,4.876,2.854,2.854,0,0,1,0,2.958,2.822,2.822,0,0,1,.874.852,2.972,2.972,0,0,1,3.031,0a2.635,2.635,0,0,1,2.15,1.083,4.214,4.214,0,0,1,.859,2.694A5.7,5.7,0,0,1,4.308,7.846,6.639,6.639,0,0,1,.141,9.928Z" transform="translate(5.928 10.898) rotate(-169)" fill="#2d83ee"/>
        <path id="_4424_Converted_2" data-name="4424 [Converted]" d="M.141,9.928V9.3A6.783,6.783,0,0,0,3.6,5.2a2.465,2.465,0,0,1-1.3.455A2.063,2.063,0,0,1,.669,4.876,2.854,2.854,0,0,1,0,2.958,2.822,2.822,0,0,1,.874.852,2.972,2.972,0,0,1,3.031,0a2.635,2.635,0,0,1,2.15,1.083,4.214,4.214,0,0,1,.859,2.694A5.7,5.7,0,0,1,4.308,7.846,6.639,6.639,0,0,1,.141,9.928Z" transform="matrix(0.978, 0.208, -0.208, 0.978, 16.192, 7.192)" fill="#2d83ee"/>
        <path id="Path_230" data-name="Path 230" d="M0,9.64A8.945,8.945,0,0,1,.422,8.565a17.051,17.051,0,0,1,2.5-3.649,20.992,20.992,0,0,1,4.3-3.726A9.3,9.3,0,0,1,9.448.077C9.487.038,9.564.038,9.64,0L9.18.576A18.037,18.037,0,0,0,7.72,2.5c-.038.077-.077.077-.154.077a4.175,4.175,0,0,1-1,.154,1.216,1.216,0,0,0,.461.307c.077.038.23.038.269.154,0,.077-.115.192-.154.269a.554.554,0,0,1-.422.346,3.861,3.861,0,0,1-.96.154c0,.077.038.077.077.115a2.135,2.135,0,0,0,.653.346c.077.038.077.077.038.154a.51.51,0,0,1-.422.307,6.925,6.925,0,0,1-1.5.307H4.571a2.111,2.111,0,0,0,.346.269,4.1,4.1,0,0,0,.73.269c.038,0,.077.038.038.077a2.967,2.967,0,0,1-.653.73.873.873,0,0,1-.691.192H3.457a4.175,4.175,0,0,0-.691.038.712.712,0,0,0-.461.269,7.038,7.038,0,0,0-.883,1.46l-.115.23a.814.814,0,0,1-.538.576A2.651,2.651,0,0,0,0,9.64Z" transform="translate(5.645 5.077) rotate(-11)" fill="#2d83ee" fill-rule="evenodd"/>
      </g>
    </g>
  </g>
</svg>
